# xmcd
#
# Track frame offsets:
#	150
#	12452
#	25165
#	40047
#	60302
#	78680
#	95042
#	107185
#	126585
#	145690
#	162352
#	183000
#
# Disc length: 2753 seconds
#
# Revision: 0
# Processed by: cddbd v1.5.2PL0 Copyright (c) Steve Scherf et al.
# Submitted via: audiograbber 1.83.01
#
DISCID=9c0abf0c
DTITLE=Automatic - Get Together
DYEAR=1999
DGENRE=Alternative
TTITLE0=Science Fiction
TTITLE1=Palace Girls
TTITLE2=Psychic Cats
TTITLE3=Falling Down
TTITLE4=Still Beautiful
TTITLE5=What Comes Around
TTITLE6=I Don't Want It
TTITLE7=Sweet Stuff
TTITLE8=Closer
TTITLE9=Get Together
TTITLE10=Drunk Times
TTITLE11=Whatever
EXTD=
EXTT0=
EXTT1=
EXTT2=
EXTT3=
EXTT4=
EXTT5=
EXTT6=
EXTT7=
EXTT8=
EXTT9=
EXTT10=
EXTT11=
PLAYORDER=
